<svg width="20" height="21" viewBox="0 0 20 21" fill="none" xmlns="http://www.w3.org/2000/svg">
<path d="M2.83333 16.8333C2.32917 16.8333 1.89757 16.6538 1.53854 16.2948C1.17951 15.9358 1 15.5042 1 15V5.83333C1 5.32917 1.17951 4.89757 1.53854 4.53854C1.89757 4.17951 2.32917 4 2.83333 4H17.5C18.0041 4 18.4357 4.17951 18.7948 4.53854C19.1538 4.89757 19.3333 5.32917 19.3333 5.83333V15C19.3333 15.5042 19.1538 15.9358 18.7948 16.2948C18.4357 16.6538 18.0041 16.8333 17.5 16.8333H2.83333ZM2.83333 15H17.5V5.83333H2.83333V15ZM6.49999 14.0833H13.8333V12.25H6.49999V14.0833ZM3.75 11.3333H5.58333V9.49999H3.75V11.3333ZM6.49999 11.3333H8.33333V9.49999H6.49999V11.3333ZM9.24999 11.3333H11.0833V9.49999H9.24999V11.3333ZM12 11.3333H13.8333V9.49999H12V11.3333ZM14.75 11.3333H16.5833V9.49999H14.75V11.3333ZM3.75 8.58333H5.58333V6.75H3.75V8.58333ZM6.49999 8.58333H8.33333V6.75H6.49999V8.58333ZM9.24999 8.58333H11.0833V6.75H9.24999V8.58333ZM12 8.58333H13.8333V6.75H12V8.58333ZM14.75 8.58333H16.5833V6.75H14.75V8.58333Z" fill="#EAEBF1"/>
</svg>
