<svg width="21" height="21" viewBox="0 0 21 21" fill="none" xmlns="http://www.w3.org/2000/svg">
<path d="M10.3333 18.6667C9.19444 18.6667 8.11806 18.4479 7.10417 18.0104C6.09028 17.5729 5.20486 16.9757 4.44792 16.2188C3.69097 15.4618 3.09375 14.5764 2.65625 13.5625C2.21875 12.5486 2 11.4722 2 10.3333C2 9.18056 2.21875 8.10069 2.65625 7.09375C3.09375 6.08681 3.69097 5.20486 4.44792 4.44792C5.20486 3.69097 6.09028 3.09375 7.10417 2.65625C8.11806 2.21875 9.19444 2 10.3333 2C11.4861 2 12.566 2.21875 13.5729 2.65625C14.5799 3.09375 15.4618 3.69097 16.2188 4.44792C16.9757 5.20486 17.5729 6.08681 18.0104 7.09375C18.4479 8.10069 18.6667 9.18056 18.6667 10.3333C18.6667 11.4722 18.4479 12.5486 18.0104 13.5625C17.5729 14.5764 16.9757 15.4618 16.2188 16.2188C15.4618 16.9757 14.5799 17.5729 13.5729 18.0104C12.566 18.4479 11.4861 18.6667 10.3333 18.6667ZM10.3333 16.9583C10.6944 16.4583 11.0069 15.9375 11.2708 15.3958C11.5347 14.8542 11.75 14.2778 11.9167 13.6667H8.75C8.91667 14.2778 9.13194 14.8542 9.39583 15.3958C9.65972 15.9375 9.97222 16.4583 10.3333 16.9583ZM8.16667 16.625C7.91667 16.1667 7.69792 15.691 7.51042 15.1979C7.32292 14.7049 7.16667 14.1944 7.04167 13.6667H4.58333C4.98611 14.3611 5.48958 14.9653 6.09375 15.4792C6.69792 15.9931 7.38889 16.375 8.16667 16.625ZM12.5 16.625C13.2778 16.375 13.9688 15.9931 14.5729 15.4792C15.1771 14.9653 15.6806 14.3611 16.0833 13.6667H13.625C13.5 14.1944 13.3438 14.7049 13.1562 15.1979C12.9688 15.691 12.75 16.1667 12.5 16.625ZM3.875 12H6.70833C6.66667 11.7222 6.63542 11.4479 6.61458 11.1771C6.59375 10.9062 6.58333 10.625 6.58333 10.3333C6.58333 10.0417 6.59375 9.76042 6.61458 9.48958C6.63542 9.21875 6.66667 8.94444 6.70833 8.66667H3.875C3.80556 8.94444 3.75347 9.21875 3.71875 9.48958C3.68403 9.76042 3.66667 10.0417 3.66667 10.3333C3.66667 10.625 3.68403 10.9062 3.71875 11.1771C3.75347 11.4479 3.80556 11.7222 3.875 12ZM8.375 12H12.2917C12.3333 11.7222 12.3646 11.4479 12.3854 11.1771C12.4062 10.9062 12.4167 10.625 12.4167 10.3333C12.4167 10.0417 12.4062 9.76042 12.3854 9.48958C12.3646 9.21875 12.3333 8.94444 12.2917 8.66667H8.375C8.33333 8.94444 8.30208 9.21875 8.28125 9.48958C8.26042 9.76042 8.25 10.0417 8.25 10.3333C8.25 10.625 8.26042 10.9062 8.28125 11.1771C8.30208 11.4479 8.33333 11.7222 8.375 12ZM13.9583 12H16.7917C16.8611 11.7222 16.9132 11.4479 16.9479 11.1771C16.9826 10.9062 17 10.625 17 10.3333C17 10.0417 16.9826 9.76042 16.9479 9.48958C16.9132 9.21875 16.8611 8.94444 16.7917 8.66667H13.9583C14 8.94444 14.0312 9.21875 14.0521 9.48958C14.0729 9.76042 14.0833 10.0417 14.0833 10.3333C14.0833 10.625 14.0729 10.9062 14.0521 11.1771C14.0312 11.4479 14 11.7222 13.9583 12ZM13.625 7H16.0833C15.6806 6.30556 15.1771 5.70139 14.5729 5.1875C13.9688 4.67361 13.2778 4.29167 12.5 4.04167C12.75 4.5 12.9688 4.97569 13.1562 5.46875C13.3438 5.96181 13.5 6.47222 13.625 7ZM8.75 7H11.9167C11.75 6.38889 11.5347 5.8125 11.2708 5.27083C11.0069 4.72917 10.6944 4.20833 10.3333 3.70833C9.97222 4.20833 9.65972 4.72917 9.39583 5.27083C9.13194 5.8125 8.91667 6.38889 8.75 7ZM4.58333 7H7.04167C7.16667 6.47222 7.32292 5.96181 7.51042 5.46875C7.69792 4.97569 7.91667 4.5 8.16667 4.04167C7.38889 4.29167 6.69792 4.67361 6.09375 5.1875C5.48958 5.70139 4.98611 6.30556 4.58333 7Z" fill="#EAEBF1"/>
</svg>
