<svg width="18" height="17" viewBox="0 0 18 17" fill="none" xmlns="http://www.w3.org/2000/svg">
<path d="M9 16C8.45 16 7.97917 15.8164 7.5875 15.4492C7.19583 15.082 7 14.6406 7 14.125C7 13.6094 7.19583 13.168 7.5875 12.8008C7.97917 12.4336 8.45 12.25 9 12.25C9.55 12.25 10.0208 12.4336 10.4125 12.8008C10.8042 13.168 11 13.6094 11 14.125C11 14.6406 10.8042 15.082 10.4125 15.4492C10.0208 15.8164 9.55 16 9 16ZM9 10.375C8.45 10.375 7.97917 10.1914 7.5875 9.82422C7.19583 9.45703 7 9.01562 7 8.5C7 7.98437 7.19583 7.54297 7.5875 7.17578C7.97917 6.80859 8.45 6.625 9 6.625C9.55 6.625 10.0208 6.80859 10.4125 7.17578C10.8042 7.54297 11 7.98437 11 8.5C11 9.01562 10.8042 9.45703 10.4125 9.82422C10.0208 10.1914 9.55 10.375 9 10.375ZM9 4.75C8.45 4.75 7.97917 4.56641 7.5875 4.19922C7.19583 3.83203 7 3.39062 7 2.875C7 2.35937 7.19583 1.91797 7.5875 1.55078C7.97917 1.18359 8.45 1 9 1C9.55 1 10.0208 1.18359 10.4125 1.55078C10.8042 1.91797 11 2.35937 11 2.875C11 3.39062 10.8042 3.83203 10.4125 4.19922C10.0208 4.56641 9.55 4.75 9 4.75Z" fill="#EAEBF1"/>
</svg>
