<svg width="20" height="20" viewBox="0 0 20 20" fill="none" xmlns="http://www.w3.org/2000/svg">
<path d="M7.42427 5.8182C7.42399 6.94251 7.71877 8.04719 8.27916 9.02188C8.83955 9.99657 9.64592 10.8071 10.6177 11.3726C11.5895 11.938 12.6926 12.2385 13.8169 12.244C14.9412 12.2495 16.0472 11.9599 17.0245 11.4041C16.6383 15.4787 13.2061 18.6667 9.03034 18.6667C4.59518 18.6667 1 15.0716 1 10.6364C1 6.46063 4.18804 3.02846 8.26264 2.6422C7.7114 3.60981 7.42241 4.7046 7.42427 5.8182ZM2.60607 10.6364C2.60607 12.3402 3.28291 13.9743 4.48769 15.1791C5.69248 16.3838 7.32652 17.0607 9.03034 17.0607C10.1654 17.0606 11.2802 16.76 12.2615 16.1895C13.2427 15.619 14.0555 14.7988 14.617 13.8124C14.3633 13.8365 14.1063 13.8485 13.8485 13.8485C9.41339 13.8485 5.8182 10.2534 5.8182 5.8182C5.8182 5.56043 5.83025 5.30426 5.85434 5.0497C4.86793 5.61128 4.04778 6.424 3.47724 7.40526C2.90671 8.38652 2.60614 9.50134 2.60607 10.6364ZM13.9802 2.83975L14.6516 3.00759V3.81062L13.9802 3.97845C13.6979 4.04907 13.44 4.19507 13.2342 4.40087C13.0284 4.60667 12.8824 4.86452 12.8118 5.14687L12.644 5.8182H11.841L11.6731 5.14687C11.6025 4.86452 11.4565 4.60667 11.2507 4.40087C11.0449 4.19507 10.7871 4.04907 10.5047 3.97845L9.83337 3.81062V3.00759L10.5047 2.83975C10.7869 2.76901 11.0446 2.62295 11.2502 2.41716C11.4559 2.21137 11.6018 1.95358 11.6723 1.67134L11.841 1H12.644L12.8118 1.67134C12.8824 1.95368 13.0284 2.21153 13.2342 2.41733C13.44 2.62313 13.6979 2.76914 13.9802 2.83975ZM17.9954 6.85492L18.6667 7.02276V7.82579L17.9954 7.99362C17.7131 8.06424 17.4552 8.21024 17.2494 8.41604C17.0436 8.62184 16.8976 8.87969 16.827 9.16204L16.6592 9.83337H15.8561L15.6883 9.16204C15.6177 8.87969 15.4717 8.62184 15.2659 8.41604C15.0601 8.21024 14.8022 8.06424 14.5199 7.99362L13.8485 7.82579V7.02276L14.5199 6.85492C14.8022 6.78431 15.0601 6.6383 15.2659 6.4325C15.4717 6.2267 15.6177 5.96885 15.6883 5.68651L15.8561 5.01517H16.6592L16.827 5.68651C16.8976 5.96885 17.0436 6.2267 17.2494 6.4325C17.4552 6.6383 17.7131 6.78431 17.9954 6.85492Z" fill="#EAEBF1"/>
</svg>
