<svg width="20" height="21" viewBox="0 0 20 21" fill="none" xmlns="http://www.w3.org/2000/svg">
<path d="M8.08333 18.6667L7.75 16C7.56944 15.9306 7.39931 15.8472 7.23958 15.75C7.07986 15.6528 6.92361 15.5486 6.77083 15.4375L4.29167 16.4792L2 12.5208L4.14583 10.8958C4.13194 10.7986 4.125 10.7049 4.125 10.6146V10.0521C4.125 9.96181 4.13194 9.86806 4.14583 9.77083L2 8.14583L4.29167 4.1875L6.77083 5.22917C6.92361 5.11806 7.08333 5.01389 7.25 4.91667C7.41667 4.81944 7.58333 4.73611 7.75 4.66667L8.08333 2H12.6667L13 4.66667C13.1806 4.73611 13.3507 4.81944 13.5104 4.91667C13.6701 5.01389 13.8264 5.11806 13.9792 5.22917L16.4583 4.1875L18.75 8.14583L16.6042 9.77083C16.6181 9.86806 16.625 9.96181 16.625 10.0521V10.6146C16.625 10.7049 16.6111 10.7986 16.5833 10.8958L18.7292 12.5208L16.4375 16.4792L13.9792 15.4375C13.8264 15.5486 13.6667 15.6528 13.5 15.75C13.3333 15.8472 13.1667 15.9306 13 16L12.6667 18.6667H8.08333ZM10.4167 13.25C11.2222 13.25 11.9097 12.9653 12.4792 12.3958C13.0486 11.8264 13.3333 11.1389 13.3333 10.3333C13.3333 9.52778 13.0486 8.84028 12.4792 8.27083C11.9097 7.70139 11.2222 7.41667 10.4167 7.41667C9.59722 7.41667 8.90625 7.70139 8.34375 8.27083C7.78125 8.84028 7.5 9.52778 7.5 10.3333C7.5 11.1389 7.78125 11.8264 8.34375 12.3958C8.90625 12.9653 9.59722 13.25 10.4167 13.25Z" fill="#EAEBF1"/>
</svg>
