<svg width="21" height="21" viewBox="0 0 21 21" fill="none" xmlns="http://www.w3.org/2000/svg">
<path d="M10.5004 7.3125C8.74388 7.3125 7.31276 8.74355 7.31276 10.5C7.31276 12.2564 8.74388 13.6875 10.5004 13.6875C12.2569 13.6875 13.6881 12.2564 13.6881 10.5C13.6881 8.74355 12.2569 7.3125 10.5004 7.3125ZM18.6821 9.98535L15.5376 8.41484L16.6499 5.08125C16.7994 4.62969 16.371 4.20137 15.9227 4.3541L12.589 5.46641L11.0151 2.31875C10.8026 1.89375 10.1982 1.89375 9.98574 2.31875L8.41515 5.46309L5.07808 4.35078C4.62649 4.20137 4.19815 4.62969 4.3509 5.07793L5.46325 8.41152L2.31877 9.98535C1.89374 10.1979 1.89374 10.8021 2.31877 11.0146L5.46325 12.5852L4.3509 15.9221C4.20147 16.3736 4.62981 16.802 5.07808 16.6492L8.41183 15.5369L9.98242 18.6812C10.1949 19.1062 10.7993 19.1062 11.0118 18.6812L12.5823 15.5369L15.9161 16.6492C16.3677 16.7986 16.796 16.3703 16.6433 15.9221L15.5309 12.5885L18.6754 11.018C19.1071 10.8021 19.1071 10.1979 18.6821 9.98535ZM13.5054 13.5049C11.8485 15.1617 9.1523 15.1617 7.49538 13.5049C5.83847 11.848 5.83847 9.15195 7.49538 7.49512C9.1523 5.83828 11.8485 5.83828 13.5054 7.49512C15.1624 9.15195 15.1624 11.848 13.5054 13.5049Z" fill="#EAEBF1"/>
</svg>
